<?xml version="1.0" encoding="UTF-8" standalone="no"?>
<svg
   xmlns="http://www.w3.org/2000/svg"
   xmlns:xlink="http://www.w3.org/1999/xlink"
   width="308.7612359841165"
   height="304.915625"
   viewBox="0 0 980 980">
  <defs>
    <clipPath id="clipCircle">
      <circle cx="490" cy="490" r="490"/>
    </clipPath>
  </defs>
  <g clip-path="url(#clipCircle)">
    <path fill="#000000" d="
    M436.000000,981.000000 
      C290.666656,981.000000 145.833328,981.000000 1.000000,981.000000 
      C1.000000,654.333313 1.000000,327.666656 1.000000,1.000000 
      C327.666656,1.000000 654.333313,1.000000 981.000000,1.000000 
      C981.000000,327.666656 981.000000,654.333313 981.000000,981.000000 
      C799.500000,981.000000 618.000000,981.000000 436.000000,981.000000 
    M391.459229,623.066162 
      C317.414490,566.475342 314.456757,474.022369 341.347687,422.461426 
      C355.443298,440.012024 369.448578,457.450134 383.757996,475.266968 
      C398.820618,456.525146 413.437073,438.338440 428.997101,418.977722 
      C428.997101,480.796600 428.997101,541.019348 428.997101,601.403564 
      C445.953705,601.403564 462.478485,601.403564 478.973053,601.403564 
      C478.973053,492.952698 478.973053,384.882660 478.973053,275.851257 
      C446.913849,315.828674 415.448090,355.066040 383.740479,394.605011 
      C368.565979,375.704041 353.901825,357.438751 339.209290,339.138123 
      C278.391907,398.344025 255.484756,497.661865 297.511444,584.617126 
      C338.914795,670.282532 423.340759,705.261902 478.936279,705.254272 
      C478.936279,689.003906 478.936279,672.755615 478.936279,656.306030 
      C446.668488,653.536987 417.715210,642.787598 391.459229,623.066162 
    M665.725464,365.763184 
      C625.251343,310.986847 570.969299,281.388611 502.945953,275.769287 
      C502.945953,384.797272 502.945953,493.019379 502.945953,601.431030 
      C519.729248,601.431030 536.275269,601.431030 553.270630,601.431030 
      C553.270630,567.843872 553.270630,534.600525 553.270630,500.836243 
      C604.260315,500.836243 654.800781,500.836243 705.756592,500.836243 
      C707.197876,451.287994 694.467651,406.539215 665.725464,365.763184 
    M549.794861,698.124695 
      C550.882874,696.981384 552.904114,695.849792 552.918579,694.693115 
      C553.124512,678.214294 553.058960,661.732178 553.058960,645.943970 
      C536.311279,649.832520 519.723694,653.683899 503.037537,657.558105 
      C503.037537,673.154724 503.037537,689.403320 503.037537,706.004150 
      C518.869629,705.112427 534.060120,702.536621 549.794861,698.124695 
    "/>
  </g>
</svg>
